# xmcd CD database file
#
# Track frame offsets:
#	150
#	25011
#	39112
#	55487
#	72512
#	118980
#	146624
#	166068
#	180693
#	196219
#	212363
#	227140
#	240518
#	254410
#	266542
#	278617
#
# Disc length: 3718 seconds
#
# Revision: 0
# Processed by: cddbd v1.5PL3 Copyright (c) Steve Scherf et al.
# Submitted via: CDex 1.51
#
DISCID=df0e8410
DTITLE=Sound Track - Reversible Karte
DYEAR=1997
DGENRE=Game
TTITLE0=Unknown
TTITLE1=Reversible Karte
TTITLE2=見えざる遺志
TTITLE3=翼を折られた天使
TTITLE4=幻影
TTITLE5=星の雫
TTITLE6=妖精の瞳
TTITLE7=歪んだ天秤
TTITLE8=家路
TTITLE9=封印されし刻
TTITLE10=道化師の嘲笑
TTITLE11=駄天使の饗宴
TTITLE12=束の間の愛
TTITLE13=陽だまり
TTITLE14=破壊
TTITLE15=Unknown
EXTD=YEAR: 1997
EXTT0=
EXTT1=
EXTT2=
EXTT3=
EXTT4=
EXTT5=
EXTT6=
EXTT7=
EXTT8=
EXTT9=
EXTT10=
EXTT11=
EXTT12=
EXTT13=
EXTT14=
EXTT15=
PLAYORDER=
